<svg id="Layer_1" data-name="Layer 1" xmlns="http://www.w3.org/2000/svg" xmlns:xlink="http://www.w3.org/1999/xlink" viewBox="0 0 512 512"><defs><linearGradient id="linear-gradient" x1="256" y1="501.64" x2="256" y2="11.35" gradientUnits="userSpaceOnUse"><stop offset="0" stop-color="#aaaaa9"/><stop offset="1" stop-color="#dddfdd"/></linearGradient><linearGradient id="linear-gradient-2" x1="256" y1="353.43" x2="256" y2="157.78" gradientUnits="userSpaceOnUse"><stop offset="0" stop-color="#211e15"/><stop offset="1" stop-color="#4d4d4f"/></linearGradient></defs><title>pause</title><path d="M256.15,501.15C391,501.15,501,390.88,501,256S391,10.85,256.15,10.85C121,10.85,11,121.12,11,256S121,501.15,256.15,501.15Z" fill-rule="evenodd" fill="url(#linear-gradient)"/><path d="M256.15,26C379.76,26,480,126.16,480,249.78a43.64,43.64,0,0,1-.3,6.22C476.39,135.35,377.39,38.42,256.15,38.42,134.61,38.42,35.6,135.35,32.34,256c0-2.07-.3-4.15-.3-6.22C32,126.16,132.53,26,256.15,26Z" fill="#eff0ef" fill-rule="evenodd"/><path d="M172.85,158.18h59V353.82h-59V158.18Zm107.31,0h59V353.82h-59Z" fill-rule="evenodd" fill="url(#linear-gradient-2)"/></svg>