<svg id="Layer_1" data-name="Layer 1" xmlns="http://www.w3.org/2000/svg" xmlns:xlink="http://www.w3.org/1999/xlink" viewBox="0 0 512 512"><defs><linearGradient id="linear-gradient" x1="256" y1="501.67" x2="256" y2="11.97" gradientUnits="userSpaceOnUse"><stop offset="0" stop-color="#aaaaa9"/><stop offset="1" stop-color="#dddfdd"/></linearGradient><linearGradient id="linear-gradient-2" x1="282.13" y1="361.75" x2="285.82" y2="149.99" gradientUnits="userSpaceOnUse"><stop offset="0" stop-color="#211e15"/><stop offset="1" stop-color="#4d4d4f"/></linearGradient></defs><title>play</title><path d="M256,500.85c134.79,0,245-109.91,245-244.7,0-135.09-110.21-245-245-245S11,121.06,11,256.15C11,390.94,121.2,500.85,256,500.85Z" fill-rule="evenodd" fill="url(#linear-gradient)"/><path d="M256,26c123.54,0,223.67,100.43,223.67,224v6.22C476.11,135.57,377.46,38.7,256,38.7S35.59,135.57,32.33,256.15v-6.22C32.33,126.39,132.46,26,256,26Z" fill="#eff0ef" fill-rule="evenodd"/><polygon points="377.76 256.15 192.01 360.73 192.01 151.57 377.76 256.15" fill-rule="evenodd" fill="url(#linear-gradient-2)"/></svg>